<?xml version="1.0" encoding="UTF-8"?>
<svg id="ship_boss" xmlns="http://www.w3.org/2000/svg" viewBox="0 0 128 128">
  <defs>
    <style>
      .cls-1, .cls-2, .cls-3 {
        stroke: #000;
        stroke-miterlimit: 10;
      }

      .cls-4 {
        stroke-width: 0px;
      }

      .cls-2 {
        fill: #cccbdb;
      }

      .cls-3 {
        stroke-width: .74px;
      }
    </style>
  </defs>
  <polygon class="cls-2" points="5.93 119.27 14.48 119.27 29.17 108.17 37.63 106.61 55.11 98.67 58.56 98.67 58.56 96.02 52.51 93.61 31.87 91.74 32.24 94.94 5.93 119.27"/>
  <polygon class="cls-2" points="5.93 8.73 14.48 8.73 29.17 19.83 37.63 21.39 55.11 29.33 58.56 29.33 58.56 31.98 52.51 34.39 31.87 36.26 32.24 33.06 5.93 8.73"/>
  <rect class="cls-3" x="121.66" y="45.18" width="1.57" height="6.21" transform="translate(70 -72.44) rotate(45)"/>
  <rect class="cls-1" x="16.72" y="43.99" width="1.7" height="4.75"/>
  <rect class="cls-3" x="121.66" y="76.61" width="1.57" height="6.21" transform="translate(-20.5 109.93) rotate(-45)"/>
  <rect class="cls-1" x="16.72" y="79.26" width="1.7" height="4.75"/>
  <polygon class="cls-4" points="6.34 68.67 3.97 68.67 3.97 70.62 27.74 72.81 27.63 64 27.63 64 27.74 55.18 3.97 57.38 3.97 59.33 6.34 59.33 6.34 60.11 24.8 59.9 25.33 64 25.33 64 24.8 68.1 6.34 67.89 6.34 68.67"/>
  <rect class="cls-1" x="66.19" y="48.74" width="13.23" height="7.92" rx="2.89" ry="2.89"/>
  <rect class="cls-1" x="66.19" y="71.34" width="13.23" height="7.92" rx="2.89" ry="2.89"/>
  <path class="cls-2" d="M119.98,78.45l-44.22.81-7.51-1.73v-6.17l12.26-1.77,18.21-1.81v-3.78h0v-3.78s-18.21-1.81-18.21-1.81l-12.26-1.77v-6.17l7.51-1.73,44.22.81,3.12-2.83-3.19-1.35-16.92-1.88c-17.61-1.96-35.03-5.31-52.11-10.03h-13.46l-18.99,9.57v6.94l14.48-.14.05,2.55-15.45.57-14.81,4.36v1.74l23.78-2.13-.11,7.08h0l.11,7.08-23.78-2.13v1.74l14.81,4.36,15.45.57-.05,2.55-14.48-.14v6.94l18.99,9.57h13.46c17.08-4.72,34.5-8.07,52.11-10.03l16.92-1.88,3.19-1.35-3.12-2.83Z"/>
  <path class="cls-2" d="M68.05,64h0c0,2.08-1.59,3.81-3.66,3.98l-37.92,3.1"/>
  <path class="cls-2" d="M68.05,64h0c0-2.08-1.6-3.81-3.67-3.98l-37.92-3.1"/>
  <line class="cls-2" x1="32.9" y1="49.83" x2="53.87" y2="34.29"/>
  <line class="cls-2" x1="32.91" y1="78.17" x2="53.87" y2="93.71"/>
  <rect class="cls-1" x="35.88" y="53.85" width="12.99" height="1.56"/>
  <rect class="cls-1" x="35.88" y="72.59" width="12.99" height="1.56"/>
  <line class="cls-2" x1="48.87" y1="74.15" x2="59.74" y2="78.17"/>
  <line class="cls-2" x1="48.87" y1="53.85" x2="59.74" y2="49.83"/>
  <path class="cls-4" d="M108.61,64h0,0c0-.8-.27-1.57-.77-2.19l-.6-.75c-.62-.76-1.52-1.23-2.5-1.3l-9.15-.56c-.17-.01-.35,0-.52,0l-9.86.88c-.13.01-.25.03-.37.05l-2.57.51c-1.43.29-2.53,1.43-2.76,2.87l-.08.47h0l.08.47c.23,1.44,1.33,2.58,2.76,2.87l2.57.51c.12.02.25.04.37.05l9.86.88c.17.02.35.02.52,0l9.15-.56c.98-.06,1.89-.53,2.5-1.3l.6-.75c.5-.62.77-1.39.77-2.19h0Z"/>
</svg>