<?xml version="1.0" encoding="UTF-8"?>
<svg id="ship_heavy" xmlns="http://www.w3.org/2000/svg" viewBox="0 0 128 128">
  <defs>
    <style>
      .cls-1 {
        stroke-width: .5px;
      }

      .cls-1, .cls-2, .cls-3 {
        stroke: #000;
        stroke-miterlimit: 10;
      }

      .cls-4 {
        stroke-width: 0px;
      }

      .cls-3 {
        fill: #cccbdb;
      }
    </style>
  </defs>
  <path class="cls-2" d="M48.17,53.28v1.84h-4.2l-15,4.71h-8.27c-.27,0-.49.22-.49.49v7.34c0,.27.22.49.49.49h8.27l15,4.71h4.2v1.84h22.68v-21.43h-22.68Z"/>
  <rect class="cls-1" x="2.98" y="76.49" width="6.65" height="1.51"/>
  <rect class="cls-1" x="2.98" y="50" width="6.65" height="1.51"/>
  <rect class="cls-2" x="68.03" y="36.05" width="16.37" height="2.23"/>
  <rect class="cls-2" x="68.03" y="89.72" width="16.37" height="2.23"/>
  <path class="cls-3" d="M120.65,50.76l4.96,1.31v-3.79l-57.03-9.05c-.32-.05-.55-.32-.55-.64v-2.51c0-.6-.48-1.08-1.08-1.08h-15.79c-.76,0-1.38.62-1.38,1.38v.24c0,.46-.18.9-.51,1.22l-1.29,1.29c-1.94,1.94-4.22,3.53-6.71,4.67l-4.98,2.29c-2.41,1.1-5.02,1.68-7.67,1.68h-8.82l-3.79-2.21-6.38,3.54-.02,2.85,41.1-.41-.05,1.65,18.14,1.51v3.87l-22.57-.33-4.74,4.3H4.75c-.24,0-.43.19-.43.43v1.03s0,1.03,0,1.03c0,.24.19.43.43.43h36.75l4.74,4.3,22.57-.33v3.87l-18.14,1.51.05,1.65-41.1-.41.02,2.85,6.38,3.54,3.79-2.21h8.82c2.65,0,5.26.57,7.67,1.68l4.98,2.29c2.5,1.15,4.77,2.73,6.71,4.67l1.29,1.29c.32.32.51.76.51,1.22v.24c0,.76.62,1.38,1.38,1.38h15.79c.6,0,1.08-.48,1.08-1.08v-2.51c0-.32.23-.59.55-.64l57.03-9.05v-3.79l-4.96,1.31h-31.6s-.02-.02,0-.03l20.38-8.19v-5.02s0-5.02,0-5.02l-20.38-8.19s-.01-.03,0-.03h31.6Z"/>
  <line class="cls-3" x1="50.72" y1="76.46" x2="68.03" y2="88.87"/>
  <line class="cls-3" x1="68.81" y1="73.3" x2="88.97" y2="77.24"/>
  <line class="cls-3" x1="50.72" y1="51.54" x2="68.03" y2="39.13"/>
  <line class="cls-3" x1="68.81" y1="54.7" x2="88.97" y2="50.76"/>
  <path class="cls-4" d="M118.9,64h0c0-.69-.2-1.36-.59-1.93l-.17-.26c-.96-1.43-2.44-2.42-4.12-2.75l-6.45-1.29c-1.52-.3-3.08-.33-4.6-.07l-4.88.83c-1.2.2-2.36.58-3.45,1.11l-3.55,1.72c-.57.28-.93.86-.93,1.49v1.15h0v1.15c0,.64.36,1.21.93,1.49l3.55,1.72c1.09.53,2.25.9,3.45,1.11l4.88.83c1.53.26,3.09.24,4.6-.07l6.45-1.29c1.68-.34,3.17-1.33,4.12-2.75l.17-.26c.38-.57.59-1.24.59-1.93h0Z"/>
  <polyline class="cls-4" points="78.13 64 74.34 68.31 74.34 67 76.85 64.03"/>
  <circle class="cls-4" cx="86.48" cy="56.62" r=".9"/>
  <circle class="cls-4" cx="62.25" cy="49.48" r="1.28"/>
  <polyline class="cls-4" points="78.13 64 74.34 59.69 74.34 61 76.85 63.97"/>
  <polyline class="cls-4" points="81.11 64 77.31 68.31 77.31 67 79.83 64.03"/>
  <polyline class="cls-4" points="81.11 64 77.31 59.69 77.31 61 79.83 63.97"/>
  <rect class="cls-4" x="68.03" y="79.68" width="2.81" height="2.81" rx=".61" ry=".61"/>
</svg>