<?xml version="1.0" encoding="UTF-8"?>
<svg id="ship_normal" xmlns="http://www.w3.org/2000/svg" viewBox="0 0 128 128">
  <defs>
    <style>
      .cls-1 {
        stroke-width: .5px;
      }

      .cls-1, .cls-2, .cls-3 {
        stroke: #000;
        stroke-miterlimit: 10;
      }

      .cls-2 {
        stroke-width: .25px;
      }

      .cls-4 {
        stroke-width: 0px;
      }

      .cls-3 {
        fill: #cccbdb;
      }
    </style>
  </defs>
  <polygon class="cls-2" points="40.05 78.45 36.6 80.73 59.66 112.54 62.93 112.53 40.05 78.45"/>
  <polygon class="cls-2" points="40.05 49.55 36.6 47.27 59.66 15.46 62.93 15.47 40.05 49.55"/>
  <polygon class="cls-3" points="37.91 75.26 21.93 87.84 17.64 87.84 17.64 80.65 29.37 72.64 37.91 75.26"/>
  <polygon class="cls-3" points="37.91 52.74 21.93 40.16 17.64 40.16 17.64 47.35 29.37 55.36 37.91 52.74"/>
  <path id="kridlo_right" class="cls-3" d="M78.3,120.12h-4.68l-10.69-7.59-23.09-34.39c-1.25-1.86-3.1-3.24-5.25-3.9l-5.23-1.6.95-4.89h7.59l26.29,1.56-2.14,3.09c-1.29,1.87-2.09,4.04-2.31,6.31l-.4,4.04h0s14.27,29.79,14.27,29.79l4.68,7.58Z"/>
  <path id="kridlo_left" class="cls-3" d="M78.3,7.88h-4.68l-10.69,7.59-23.09,34.39c-1.25,1.86-3.1,3.24-5.25,3.9l-5.23,1.6.95,4.89h7.59l26.29-1.56-2.14-3.09c-1.29-1.87-2.09-4.04-2.31-6.31l-.4-4.04h0s14.27-29.79,14.27-29.79l4.68-7.58Z"/>
  <polygon class="cls-3" points="39.95 78.97 36.8 81.05 59.66 112.54 62.21 112.53 39.95 78.97"/>
  <polygon class="cls-3" points="39.95 49.03 36.8 46.95 59.66 15.46 62.21 15.47 39.95 49.03"/>
  <path class="cls-3" d="M102.36,62.5v3c0,.41-.31.76-.72.82l-3.02.42c-7.16.98-13.93,3.83-19.64,8.26l-8.27,6.42c-.45.35-1.01.54-1.58.54h-2.38c-.25,0-.49-.1-.67-.27l-1.6-1.55c-.18-.17-.28-.41-.28-.65v-30.98c0-.24.1-.48.28-.65l1.6-1.55c.18-.17.42-.27.67-.27h2.38c.57,0,1.13.19,1.58.54l8.27,6.42c5.71,4.43,12.48,7.28,19.64,8.26l3.02.42c.41.06.72.41.72.82Z"/>
  <path id="trup" class="cls-3" d="M79.33,64l6.08,2.11c-1.51,1.68-7.08,6.04-9.34,6.04l-17.45-1.97-29.12-2.43v-7.5l29.6-2.85,16.52-1.54c2.26,0,8.28,4.36,9.79,6.04l-6.08,2.11Z"/>
  <path class="cls-4" d="M63.75,58.04l-.82-1.19-.17-.24-.42-.61-1.3.58s-.09.03-.13.03h-5.12c-.11,0-.21.05-.27.14l-1.01,1.54c-.14.21.01.5.27.5h8.03c.08,0,.16-.03.22-.08l.73-.67Z"/>
  <path class="cls-4" d="M63.75,69.96l-.82,1.19-.17.24-.42.61-1.3-.58s-.09-.03-.13-.03h-5.12c-.11,0-.21-.05-.27-.14l-1.01-1.54c-.14-.21.01-.5.27-.5h8.03c.08,0,.16.03.22.08l.73.67Z"/>
  <path id="pohon" class="cls-4" d="M33.37,64c0,1.07-.46,2.12-1.2,2.91-.73.78-1.73,1.3-2.8,1.3l-5.88-.46c-4.53-.82-4.53-1.61-4.53-3.75s0-2.93,4.53-3.75l5.88-.46c1.07,0,2.07.52,2.8,1.3.74.79,1.2,1.84,1.2,2.91Z"/>
  <path class="cls-1" d="M46.22,64.13c.06-.08.16-.13.26-.13-.1,0-.2-.05-.26-.13l-2.64-3.52,4.18,3.65-4.18,3.65,2.64-3.52Z"/>
  <path class="cls-1" d="M50.4,64.13c.06-.08.16-.13.26-.13-.1,0-.2-.05-.26-.13l-2.64-3.52,4.18,3.65-4.18,3.65,2.64-3.52Z"/>
  <path id="kabina" class="cls-4" d="M100.2,64l-.04.02c-2.55,1.42-5.28,2.29-8.06,2.57-3.02.3-6.07-.1-8.98-1.18l-3.79-1.41,3.79-1.41c2.91-1.08,5.96-1.48,8.98-1.18,2.78.28,5.51,1.15,8.06,2.57l.04.02Z"/>
  <path class="cls-4" d="M61.37,27.62l-2.27.65c-.21.06-.38.2-.47.39l-5.6,11.17c-.2.41,0,.9.42,1.06l1.88.7c.37.14.78-.03.95-.39l5.98-12.51c.28-.59-.27-1.24-.9-1.06Z"/>
  <path class="cls-4" d="M61.37,100.38l-2.27-.65c-.21-.06-.38-.2-.47-.39l-5.6-11.17c-.2-.41,0-.9.42-1.06l1.88-.7c.37-.14.78.03.95.39l5.98,12.51c.28.59-.27,1.24-.9,1.06Z"/>
  <path id="nos" class="cls-4" d="M110.36,63.83v.34c0,.73-.6,1.33-1.34,1.33h-6.66v-3h6.66c.74,0,1.34.6,1.34,1.33Z"/>
</svg>